<svg width="96" height="14" viewBox="0 0 96 14" fill="none" xmlns="http://www.w3.org/2000/svg">
<path d="M9.34 1.56H12.58V14H9.34V8.36H3.88V14H0.64V1.56H3.88V7.18H9.34V1.56ZM22.7348 12.2V6.1C22.7348 5.84667 22.6948 5.68 22.6148 5.6C22.5348 5.52 22.3682 5.48 22.1148 5.48H19.2548C18.9882 5.48 18.8148 5.52 18.7348 5.6C18.6682 5.68 18.6348 5.84667 18.6348 6.1V12.2C18.6348 12.4667 18.6682 12.64 18.7348 12.72C18.8148 12.7867 18.9882 12.82 19.2548 12.82H22.1148C22.3682 12.82 22.5348 12.7867 22.6148 12.72C22.6948 12.64 22.7348 12.4667 22.7348 12.2ZM17.1348 4.3H24.2348C25.2882 4.3 25.8148 4.82667 25.8148 5.88V12.42C25.8148 13.4733 25.2882 14 24.2348 14H17.1348C16.0815 14 15.5548 13.4733 15.5548 12.42V5.88C15.5548 4.82667 16.0815 4.3 17.1348 4.3ZM31.9041 14H28.8041V0.619999H31.9041V14ZM42.0708 12.2V6.1C42.0708 5.84667 42.0308 5.68 41.9508 5.6C41.8708 5.52 41.7041 5.48 41.4508 5.48H38.5908C38.3241 5.48 38.1508 5.52 38.0708 5.6C38.0041 5.68 37.9708 5.84667 37.9708 6.1V12.2C37.9708 12.4667 38.0041 12.64 38.0708 12.72C38.1508 12.7867 38.3241 12.82 38.5908 12.82H41.4508C41.7041 12.82 41.8708 12.7867 41.9508 12.72C42.0308 12.64 42.0708 12.4667 42.0708 12.2ZM36.4708 4.3H43.5708C44.6241 4.3 45.1508 4.82667 45.1508 5.88V12.42C45.1508 13.4733 44.6241 14 43.5708 14H36.4708C35.4174 14 34.8908 13.4733 34.8908 12.42V5.88C34.8908 4.82667 35.4174 4.3 36.4708 4.3Z" fill="#3DDEED"/>
<path d="M58.96 5.54H55.72V3.36C55.72 3.09333 55.68 2.92667 55.6 2.86C55.5333 2.78 55.3667 2.74 55.1 2.74H51.84C51.5867 2.74 51.42 2.78 51.34 2.86C51.26 2.92667 51.22 3.09333 51.22 3.36V12.2C51.22 12.4667 51.26 12.64 51.34 12.72C51.42 12.7867 51.5867 12.82 51.84 12.82H55.12C55.3733 12.82 55.54 12.7867 55.62 12.72C55.7 12.64 55.74 12.4667 55.74 12.2V8.78H53.3V7.6H58.96V12.42C58.96 13.4733 58.4333 14 57.38 14H49.56C48.5067 14 47.98 13.4733 47.98 12.42V3.14C47.98 2.08667 48.5067 1.56 49.56 1.56H57.38C58.4333 1.56 58.96 2.08667 58.96 3.14V5.54ZM65.3291 12.82H68.0291C68.5091 12.82 68.7491 12.6067 68.7491 12.18V6.12C68.7491 5.69333 68.5091 5.48 68.0291 5.48H65.3291C65.0624 5.48 64.8891 5.52 64.8091 5.6C64.7424 5.68 64.7091 5.84667 64.7091 6.1V12.2C64.7091 12.4667 64.7424 12.64 64.8091 12.72C64.8891 12.7867 65.0624 12.82 65.3291 12.82ZM68.7491 4.3H71.8291V14H68.7491V13.34C68.5891 13.78 68.2091 14 67.6091 14H63.2091C62.1557 14 61.6291 13.4733 61.6291 12.42V5.88C61.6291 4.82667 62.1557 4.3 63.2091 4.3H67.6091C68.2091 4.3 68.5891 4.52 68.7491 4.96V4.3ZM83.1364 12.82V14H74.1564V12.82L79.6964 5.48H74.4564V4.3H83.0164V5.48L77.4164 12.82H83.1364ZM88.4005 8.44H92.7205V6.1C92.7205 5.84667 92.6805 5.68 92.6005 5.6C92.5338 5.52 92.3671 5.48 92.1005 5.48H89.0205C88.7538 5.48 88.5805 5.52 88.5005 5.6C88.4338 5.68 88.4005 5.84667 88.4005 6.1V8.44ZM86.9005 4.3H94.1405C95.1938 4.3 95.7205 4.82667 95.7205 5.88V9.62H88.4005V12.2C88.4005 12.4667 88.4338 12.64 88.5005 12.72C88.5805 12.7867 88.7538 12.82 89.0205 12.82H92.0605C92.3271 12.82 92.4938 12.7867 92.5605 12.72C92.6405 12.64 92.6805 12.4667 92.6805 12.2V11.02H95.6805V12.42C95.6805 13.4733 95.1538 14 94.1005 14H86.9005C85.8471 14 85.3205 13.4733 85.3205 12.42V5.88C85.3205 4.82667 85.8471 4.3 86.9005 4.3Z" fill="white"/>
</svg>
